<?xml version="1.0" encoding="utf-8"?>
<!-- Generator: Adobe Illustrator 27.5.0, SVG Export Plug-In . SVG Version: 6.00 Build 0)  -->
<svg version="1.1" id="Layer_1" xmlns="http://www.w3.org/2000/svg" xmlns:xlink="http://www.w3.org/1999/xlink" x="0px" y="0px"
	 viewBox="0 0 2372 1898" style="enable-background:new 0 0 2372 1898;" xml:space="preserve">
<g>
	<rect style="fill:#FFFFFF;" width="2371.708" height="1897.367"/>
	<g>
		<path style="opacity:0.7085;fill:#6EA2C9;" d="M1288.062,72.145c0,6.363-5.159,11.521-11.521,11.521
			c-6.363,0-11.521-5.158-11.521-11.521c0-6.363,11.521-26.184,11.521-26.184S1288.062,65.782,1288.062,72.145z"/>
		<path style="opacity:0.7493;fill:#6EA2C9;" d="M306.334,1244.934c0,4.854-3.934,8.788-8.787,8.788
			c-4.854,0-8.787-3.934-8.787-8.788c0-4.853,8.787-19.971,8.787-19.971S306.334,1240.081,306.334,1244.934z"/>
		<path style="opacity:0.8136;fill:#6EA2C9;" d="M1939.708,1345.055c0,15.054-12.204,27.259-27.258,27.259
			c-15.054,0-27.259-12.204-27.259-27.259s27.259-61.951,27.259-61.951S1939.708,1330.001,1939.708,1345.055z"/>
		<path style="opacity:0.8817;fill:#6EA2C9;" d="M111.538,1445.647c0,4.342-3.519,7.862-7.861,7.862s-7.862-3.52-7.862-7.862
			c0-4.342,7.862-17.867,7.862-17.867S111.538,1441.305,111.538,1445.647z"/>
		<path style="opacity:0.8204;fill:#6EA2C9;" d="M1241,574.431c0,14.129-11.454,25.584-25.584,25.584
			c-14.13,0-25.584-11.455-25.584-25.584c0-14.13,25.584-58.146,25.584-58.146S1241,560.301,1241,574.431z"/>
		<path style="opacity:0.8771;fill:#6EA2C9;" d="M2166.756,989.135c0,6.641-5.383,12.024-12.024,12.024
			c-6.641,0-12.025-5.384-12.025-12.024c0-6.641,12.025-27.328,12.025-27.328S2166.756,982.494,2166.756,989.135z"/>
		<path style="opacity:0.951;fill:#6EA2C9;" d="M517.403,1673.269c0,15.533-12.592,28.125-28.126,28.125
			c-15.533,0-28.125-12.593-28.125-28.125c0-15.533,28.125-63.922,28.125-63.922S517.403,1657.735,517.403,1673.269z"/>
		<path style="opacity:0.8135;fill:#6EA2C9;" d="M2222.461,1675.315c0,7.788-6.313,14.101-14.101,14.101
			c-7.787,0-14.1-6.313-14.1-14.101c0-7.787,14.1-32.047,14.1-32.047S2222.461,1667.528,2222.461,1675.315z"/>
		<path style="opacity:0.8812;fill:#6EA2C9;" d="M1283.935,1057.372c0,13.823-11.205,25.027-25.027,25.027
			c-13.822,0-25.027-11.204-25.027-25.027c0-13.822,25.027-56.879,25.027-56.879S1283.935,1043.55,1283.935,1057.372z"/>
		<path style="opacity:0.6972;fill:#6EA2C9;" d="M1353.762,802.406c0,4.486-3.636,8.122-8.121,8.122
			c-4.486,0-8.122-3.636-8.122-8.122c0-4.486,8.122-18.458,8.122-18.458S1353.762,797.92,1353.762,802.406z"/>
		<path style="opacity:0.6184;fill:#6EA2C9;" d="M594.726,472.99c0,4.635-3.758,8.393-8.394,8.393c-4.635,0-8.393-3.758-8.393-8.393
			c0-4.635,8.393-19.076,8.393-19.076S594.726,468.354,594.726,472.99z"/>
		<path style="opacity:0.7817;fill:#6EA2C9;" d="M2212.427,614.217c0,8.422-6.827,15.249-15.25,15.249
			c-8.421,0-15.249-6.827-15.249-15.249c0-8.422,15.249-34.657,15.249-34.657S2212.427,605.796,2212.427,614.217z"/>
		<path style="opacity:0.967;fill:#6EA2C9;" d="M981.196,184.521c0,9.801-7.945,17.746-17.746,17.746s-17.746-7.945-17.746-17.746
			c0-9.801,17.746-40.332,17.746-40.332S981.196,174.721,981.196,184.521z"/>
		<path style="opacity:0.8435;fill:#6EA2C9;" d="M314.547,404.272c0,13.22-10.716,23.936-23.936,23.936
			c-13.219,0-23.935-10.716-23.935-23.936c0-13.219,23.935-54.398,23.935-54.398S314.547,391.053,314.547,404.272z"/>
		<path style="opacity:0.7734;fill:#6EA2C9;" d="M2361.167,547.063c0,6.327-5.129,11.456-11.456,11.456
			c-6.326,0-11.455-5.129-11.455-11.456c0-6.326,11.455-26.035,11.455-26.035S2361.167,540.737,2361.167,547.063z"/>
		<path style="opacity:0.9969;fill:#6EA2C9;" d="M752.605,260.41c0,5.508-4.465,9.972-9.972,9.972c-5.507,0-9.972-4.465-9.972-9.972
			c0-5.507,9.972-22.664,9.972-22.664S752.605,254.903,752.605,260.41z"/>
		<path style="opacity:0.8268;fill:#6EA2C9;" d="M600.961,327.988c0,5.811-4.711,10.521-10.521,10.521
			c-5.811,0-10.521-4.711-10.521-10.521c0-5.811,10.521-23.913,10.521-23.913S600.961,322.177,600.961,327.988z"/>
		<path style="opacity:0.6583;fill:#6EA2C9;" d="M2348.776,1616.498c0,3.519-2.853,6.371-6.371,6.371
			c-3.518,0-6.371-2.852-6.371-6.371s6.371-14.479,6.371-14.479S2348.776,1612.98,2348.776,1616.498z"/>
		<path style="opacity:0.6621;fill:#6EA2C9;" d="M1241.241,1380.449c0,9.234-7.485,16.72-16.719,16.72
			c-9.234,0-16.719-7.486-16.719-16.72s16.719-37.999,16.719-37.999S1241.241,1371.216,1241.241,1380.449z"/>
		<path style="opacity:0.8139;fill:#6EA2C9;" d="M594.623,76.684c0,11.553-9.365,20.919-20.918,20.919
			c-11.553,0-20.918-9.366-20.918-20.919c0-11.552,20.918-47.541,20.918-47.541S594.623,65.132,594.623,76.684z"/>
		<path style="opacity:0.8178;fill:#6EA2C9;" d="M797.279,1128.77c0,12.459-10.1,22.559-22.559,22.559s-22.559-10.1-22.559-22.559
			s22.559-51.27,22.559-51.27S797.279,1116.311,797.279,1128.77z"/>
		<path style="opacity:0.6469;fill:#6EA2C9;" d="M1766.344,320.928c0,3.077-2.494,5.572-5.572,5.572s-5.572-2.495-5.572-5.572
			c0-3.077,5.572-12.663,5.572-12.663S1766.344,317.85,1766.344,320.928z"/>
		<path style="opacity:0.7761;fill:#6EA2C9;" d="M1299.089,1823.379c0,3.632-2.944,6.576-6.576,6.576
			c-3.632,0-6.576-2.944-6.576-6.576c0-3.632,6.576-14.946,6.576-14.946S1299.089,1819.746,1299.089,1823.379z"/>
		<path style="opacity:0.8916;fill:#6EA2C9;" d="M982.414,1633.762c0,3.265-2.646,5.911-5.911,5.911
			c-3.265,0-5.912-2.646-5.912-5.911s5.912-13.436,5.912-13.436S982.414,1630.497,982.414,1633.762z"/>
		<path style="opacity:0.6135;fill:#6EA2C9;" d="M647.873,1581.208c0,5.205-4.22,9.425-9.425,9.425c-5.205,0-9.426-4.22-9.426-9.425
			s9.426-21.421,9.426-21.421S647.873,1576.003,647.873,1581.208z"/>
		<path style="opacity:0.7513;fill:#6EA2C9;" d="M847.193,567.086c0,3.932-3.187,7.12-7.12,7.12c-3.932,0-7.12-3.188-7.12-7.12
			c0-3.932,7.12-16.182,7.12-16.182S847.193,563.154,847.193,567.086z"/>
		<path style="opacity:0.7642;fill:#6EA2C9;" d="M1963,1089.465c0,3.64-2.951,6.591-6.591,6.591c-3.641,0-6.591-2.952-6.591-6.591
			s6.591-14.98,6.591-14.98S1963,1085.825,1963,1089.465z"/>
		<path style="opacity:0.8459;fill:#6EA2C9;" d="M1480.997,141.233c0,15.26-12.37,27.63-27.63,27.63
			c-15.259,0-27.63-12.37-27.63-27.63s27.63-62.796,27.63-62.796S1480.997,125.973,1480.997,141.233z"/>
		<path style="opacity:0.7245;fill:#6EA2C9;" d="M1608.523,73.02c0,2.941-2.384,5.325-5.325,5.325c-2.941,0-5.325-2.384-5.325-5.325
			s5.325-12.103,5.325-12.103S1608.523,70.079,1608.523,73.02z"/>
		<path style="opacity:0.9838;fill:#6EA2C9;" d="M2335.25,887.865c0,7.632-6.187,13.819-13.818,13.819s-13.819-6.187-13.819-13.819
			s13.819-31.405,13.819-31.405S2335.25,880.233,2335.25,887.865z"/>
		<path style="opacity:0.6774;fill:#6EA2C9;" d="M511.875,1266.693c0,2.67-2.164,4.834-4.834,4.834
			c-2.669,0-4.834-2.164-4.834-4.834c0-2.67,4.834-10.987,4.834-10.987S511.875,1264.022,511.875,1266.693z"/>
		<path style="opacity:0.7539;fill:#6EA2C9;" d="M257.27,743.842c0,15.307-12.409,27.716-27.717,27.716
			s-27.716-12.409-27.716-27.716c0-15.307,27.716-62.992,27.716-62.992S257.27,728.535,257.27,743.842z"/>
		<path style="opacity:0.9666;fill:#6EA2C9;" d="M727.369,956.167c0,3.667-2.972,6.639-6.639,6.639
			c-3.667,0-6.639-2.973-6.639-6.639c0-3.666,6.639-15.088,6.639-15.088S727.369,952.5,727.369,956.167z"/>
		<path style="opacity:0.7342;fill:#6EA2C9;" d="M1316.938,449.774c0,9.627-7.804,17.43-17.43,17.43s-17.43-7.804-17.43-17.43
			c0-9.626,17.43-39.613,17.43-39.613S1316.938,440.147,1316.938,449.774z"/>
		<path style="opacity:0.7738;fill:#6EA2C9;" d="M970.04,366.042c0,2.606-2.113,4.719-4.719,4.719c-2.606,0-4.718-2.113-4.718-4.719
			c0-2.606,4.718-10.724,4.718-10.724S970.04,363.437,970.04,366.042z"/>
		<path style="opacity:0.8231;fill:#6EA2C9;" d="M1217.035,329.847c0,10.144-8.224,18.368-18.368,18.368
			s-18.368-8.224-18.368-18.368c0-10.144,18.368-41.745,18.368-41.745S1217.035,319.702,1217.035,329.847z"/>
		<path style="opacity:0.7543;fill:#6EA2C9;" d="M191.897,929.081c0,2.601-2.108,4.71-4.709,4.71s-4.709-2.109-4.709-4.71
			c0-2.601,4.709-10.703,4.709-10.703S191.897,926.48,191.897,929.081z"/>
		<path style="opacity:0.6174;fill:#6EA2C9;" d="M889.353,1835.449c0,2.88-2.335,5.214-5.215,5.214s-5.214-2.335-5.214-5.214
			c0-2.88,5.214-11.852,5.214-11.852S889.353,1832.569,889.353,1835.449z"/>
		<path style="opacity:0.7265;fill:#6EA2C9;" d="M2353.024,1431.607c0,8.595-6.968,15.563-15.563,15.563
			s-15.563-6.968-15.563-15.563c0-8.595,15.563-35.371,15.563-35.371S2353.024,1423.012,2353.024,1431.607z"/>
		<path style="opacity:0.7476;fill:#6EA2C9;" d="M1863.313,750.029c0,12.988-10.529,23.516-23.516,23.516
			c-12.988,0-23.517-10.528-23.517-23.516c0-12.988,23.517-53.446,23.517-53.446S1863.313,737.041,1863.313,750.029z"/>
		<path style="opacity:0.7025;fill:#6EA2C9;" d="M329.092,1718.031c0,2.611-2.116,4.727-4.727,4.727
			c-2.611,0-4.727-2.116-4.727-4.727s4.727-10.744,4.727-10.744S329.092,1715.42,329.092,1718.031z"/>
		<path style="opacity:0.6814;fill:#6EA2C9;" d="M2051.199,1393.441c0,4.53-3.672,8.203-8.203,8.203
			c-4.53,0-8.203-3.673-8.203-8.203c0-4.531,8.203-18.643,8.203-18.643S2051.199,1388.911,2051.199,1393.441z"/>
		<path style="opacity:0.8736;fill:#6EA2C9;" d="M1511.243,775.117c0,2.716-2.202,4.918-4.919,4.918s-4.918-2.202-4.918-4.918
			c0-2.716,4.918-11.178,4.918-11.178S1511.243,772.401,1511.243,775.117z"/>
		<path style="opacity:0.9865;fill:#6EA2C9;" d="M102.766,1674.044c0,14.384-11.66,26.044-26.043,26.044
			c-14.384,0-26.044-11.66-26.044-26.044c0-14.383,26.044-59.19,26.044-59.19S102.766,1659.661,102.766,1674.044z"/>
		<path style="opacity:0.9402;fill:#6EA2C9;" d="M892.178,71.466c0,7.674-6.221,13.895-13.894,13.895
			c-7.674,0-13.895-6.221-13.895-13.895s13.895-31.579,13.895-31.579S892.178,63.792,892.178,71.466z"/>
		<path style="opacity:0.6867;fill:#6EA2C9;" d="M1157.938,157.441c0,9.51-7.709,17.219-17.219,17.219s-17.219-7.709-17.219-17.219
			c0-9.509,17.219-39.133,17.219-39.133S1157.938,147.931,1157.938,157.441z"/>
		<path style="opacity:0.8706;fill:#6EA2C9;" d="M156.321,1221.692c0,11.68-9.469,21.149-21.149,21.149s-21.149-9.469-21.149-21.149
			c0-11.68,21.149-48.066,21.149-48.066S156.321,1210.012,156.321,1221.692z"/>
		<path style="opacity:0.9606;fill:#6EA2C9;" d="M125.421,309.103c0,3.111-2.522,5.634-5.633,5.634
			c-3.111,0-5.633-2.523-5.633-5.634c0-3.111,5.633-12.804,5.633-12.804S125.421,305.992,125.421,309.103z"/>
		<path style="opacity:0.7966;fill:#6EA2C9;" d="M1484.666,424.426c0,4.884-3.959,8.843-8.844,8.843
			c-4.884,0-8.843-3.959-8.843-8.843c0-4.884,8.843-20.1,8.843-20.1S1484.666,419.542,1484.666,424.426z"/>
		<path style="opacity:0.8063;fill:#6EA2C9;" d="M1919.547,385.858c0,5.522-4.476,9.997-9.997,9.997s-9.997-4.476-9.997-9.997
			c0-5.521,9.997-22.722,9.997-22.722S1919.547,380.337,1919.547,385.858z"/>
		<path style="opacity:0.9818;fill:#6EA2C9;" d="M1638.643,945.622c0,9.113-7.387,16.499-16.499,16.499
			c-9.112,0-16.499-7.387-16.499-16.499c0-9.112,16.499-37.497,16.499-37.497S1638.643,936.51,1638.643,945.622z"/>
		<path style="opacity:0.6744;fill:#6EA2C9;" d="M381.103,1849.765c0,3.859-3.129,6.987-6.987,6.987
			c-3.859,0-6.987-3.129-6.987-6.987c0-3.859,6.987-15.879,6.987-15.879S381.103,1845.906,381.103,1849.765z"/>
		<path style="opacity:0.6109;fill:#6EA2C9;" d="M62.154,1046.169c0,2.996-2.428,5.425-5.425,5.425
			c-2.996,0-5.425-2.429-5.425-5.425c0-2.996,5.425-12.33,5.425-12.33S62.154,1043.173,62.154,1046.169z"/>
		<path style="opacity:0.6056;fill:#6EA2C9;" d="M2306.429,228.086c0,16.016-12.983,28.999-28.998,28.999
			c-16.016,0-28.999-12.983-28.999-28.999c0-16.015,28.999-65.905,28.999-65.905S2306.429,212.071,2306.429,228.086z"/>
		<path style="opacity:0.6151;fill:#6EA2C9;" d="M1676.732,1578.225c0,6.703-5.435,12.137-12.138,12.137
			c-6.703,0-12.137-5.434-12.137-12.137c0-6.703,12.137-27.586,12.137-27.586S1676.732,1571.522,1676.732,1578.225z"/>
		<path style="opacity:0.6988;fill:#6EA2C9;" d="M39.627,1307.834c0,6.787-5.502,12.289-12.289,12.289
			c-6.787,0-12.289-5.502-12.289-12.289c0-6.787,12.289-27.93,12.289-27.93S39.627,1301.047,39.627,1307.834z"/>
		<path style="opacity:0.7529;fill:#6EA2C9;" d="M456.487,460.914c0,14.682-11.902,26.584-26.584,26.584
			c-14.681,0-26.584-11.902-26.584-26.584c0-14.681,26.584-60.417,26.584-60.417S456.487,446.232,456.487,460.914z"/>
		<path style="opacity:0.746;fill:#6EA2C9;" d="M545.14,1813.1c0,10.059-8.154,18.213-18.212,18.213
			c-10.059,0-18.212-8.154-18.212-18.213c0-10.058,18.212-41.392,18.212-41.392S545.14,1803.042,545.14,1813.1z"/>
		<path style="opacity:0.8819;fill:#6EA2C9;" d="M1690.499,1280.278c0,9.835-7.973,17.808-17.808,17.808
			c-9.835,0-17.808-7.973-17.808-17.808s17.808-40.472,17.808-40.472S1690.499,1270.444,1690.499,1280.278z"/>
		<path style="opacity:0.9112;fill:#6EA2C9;" d="M1776.557,995.442c0,5.241-4.249,9.489-9.489,9.489
			c-5.241,0-9.489-4.248-9.489-9.489c0-5.24,9.489-21.565,9.489-21.565S1776.557,990.201,1776.557,995.442z"/>
		<path style="opacity:0.6068;fill:#6EA2C9;" d="M1624.401,633.206c0,13.523-10.963,24.485-24.485,24.485
			c-13.523,0-24.485-10.963-24.485-24.485c0-13.523,24.485-55.649,24.485-55.649S1624.401,619.683,1624.401,633.206z"/>
		<path style="opacity:0.7268;fill:#6EA2C9;" d="M2060.246,1717.121c0,7.22-5.853,13.073-13.073,13.073
			c-7.22,0-13.073-5.853-13.073-13.073c0-7.22,13.073-29.712,13.073-29.712S2060.246,1709.901,2060.246,1717.121z"/>
		<path style="opacity:0.9617;fill:#6EA2C9;" d="M1866.935,1834.192c0,2.616-2.121,4.737-4.737,4.737s-4.737-2.121-4.737-4.737
			c0-2.616,4.737-10.766,4.737-10.766S1866.935,1831.576,1866.935,1834.192z"/>
		<path style="opacity:0.9751;fill:#6EA2C9;" d="M1686.349,479.181c0,7.753-6.284,14.037-14.037,14.037
			c-7.753,0-14.038-6.284-14.038-14.037c0-7.753,14.038-31.904,14.038-31.904S1686.349,471.428,1686.349,479.181z"/>
		<path style="opacity:0.8289;fill:#6EA2C9;" d="M2319.299,1112.426c0,4.584-3.716,8.3-8.3,8.3s-8.3-3.716-8.3-8.3
			c0-4.584,8.3-18.864,8.3-18.864S2319.299,1107.842,2319.299,1112.426z"/>
		<path style="opacity:0.6114;fill:#6EA2C9;" d="M2266.571,1289.811c0,8.424-6.829,15.253-15.252,15.253
			c-8.424,0-15.253-6.829-15.253-15.253c0-8.424,15.253-34.664,15.253-34.664S2266.571,1281.388,2266.571,1289.811z"/>
		<path style="opacity:0.6983;fill:#6EA2C9;" d="M444.857,747.731c0,5.828-4.724,10.553-10.553,10.553
			c-5.829,0-10.553-4.725-10.553-10.553c0-5.828,10.553-23.985,10.553-23.985S444.857,741.903,444.857,747.731z"/>
		<path style="opacity:0.7934;fill:#6EA2C9;" d="M992.371,1333.224c0,7.412-6.008,13.42-13.421,13.42
			c-7.412,0-13.421-6.008-13.421-13.42c0-7.412,13.421-30.502,13.421-30.502S992.371,1325.813,992.371,1333.224z"/>
		<path style="opacity:0.7314;fill:#6EA2C9;" d="M677.174,1417.872c0,15.518-12.579,28.097-28.097,28.097
			c-15.518,0-28.098-12.579-28.098-28.097c0-15.518,28.098-63.858,28.098-63.858S677.174,1402.354,677.174,1417.872z"/>
		<path style="opacity:0.8681;fill:#6EA2C9;" d="M288.984,233.726c0,3.222-2.612,5.834-5.834,5.834s-5.834-2.612-5.834-5.834
			c0-3.222,5.834-13.261,5.834-13.261S288.984,230.504,288.984,233.726z"/>
		<path style="opacity:0.8336;fill:#6EA2C9;" d="M712.938,1817.285c0,12.565-10.187,22.752-22.752,22.752
			c-12.566,0-22.752-10.187-22.752-22.752s22.752-51.709,22.752-51.709S712.938,1804.719,712.938,1817.285z"/>
		<path style="opacity:0.9599;fill:#6EA2C9;" d="M559.894,935.211c0,15.347-12.441,27.788-27.788,27.788
			c-15.347,0-27.788-12.441-27.788-27.788c0-15.347,27.788-63.155,27.788-63.155S559.894,919.864,559.894,935.211z"/>
		<path style="opacity:0.9849;fill:#6EA2C9;" d="M292.022,1043.268c0,4.312-3.496,7.808-7.807,7.808
			c-4.312,0-7.808-3.496-7.808-7.808c0-4.311,7.808-17.743,7.808-17.743S292.022,1038.957,292.022,1043.268z"/>
		<path style="opacity:0.8605;fill:#6EA2C9;" d="M1938.796,1576.313c0,3.635-2.947,6.582-6.582,6.582
			c-3.635,0-6.582-2.947-6.582-6.582c0-3.635,6.582-14.959,6.582-14.959S1938.796,1572.678,1938.796,1576.313z"/>
		<path style="opacity:0.6255;fill:#6EA2C9;" d="M1043.49,819.76c0,3.392-2.75,6.143-6.143,6.143c-3.392,0-6.143-2.75-6.143-6.143
			c0-3.393,6.143-13.961,6.143-13.961S1043.49,816.367,1043.49,819.76z"/>
		<path style="opacity:0.9692;fill:#6EA2C9;" d="M1288.091,1527.618c0,4.6-3.729,8.329-8.329,8.329c-4.6,0-8.328-3.729-8.328-8.329
			c0-4.6,8.328-18.93,8.328-18.93S1288.091,1523.017,1288.091,1527.618z"/>
		<path style="opacity:0.7084;fill:#6EA2C9;" d="M1583.963,1384.371c0,8.563-6.942,15.505-15.505,15.505
			c-8.563,0-15.505-6.942-15.505-15.505c0-8.563,15.505-35.239,15.505-35.239S1583.963,1375.808,1583.963,1384.371z"/>
		<path style="opacity:0.9132;fill:#6EA2C9;" d="M2008.104,737.886c0,4.421-3.584,8.004-8.005,8.004
			c-4.421,0-8.005-3.584-8.005-8.004c0-4.421,8.005-18.193,8.005-18.193S2008.104,733.465,2008.104,737.886z"/>
		<path style="opacity:0.723;fill:#6EA2C9;" d="M905.44,1018.736c0,4.576-3.71,8.286-8.286,8.286s-8.286-3.71-8.286-8.286
			s8.286-18.831,8.286-18.831S905.44,1014.16,905.44,1018.736z"/>
		<path style="opacity:0.6062;fill:#6EA2C9;" d="M2083.086,79.018c0,8.853-7.177,16.031-16.031,16.031
			c-8.853,0-16.03-7.178-16.03-16.031c0-8.854,16.03-36.433,16.03-36.433S2083.086,70.164,2083.086,79.018z"/>
		<path style="opacity:0.7682;fill:#6EA2C9;" d="M1080.776,510.092c0,11.595-9.399,20.994-20.994,20.994
			c-11.595,0-20.994-9.399-20.994-20.994c0-11.594,20.994-47.713,20.994-47.713S1080.776,498.497,1080.776,510.092z"/>
		<path style="opacity:0.8979;fill:#6EA2C9;" d="M1401.562,269.786c0,3.577-2.899,6.476-6.476,6.476
			c-3.577,0-6.476-2.899-6.476-6.476c0-3.577,6.476-14.719,6.476-14.719S1401.562,266.21,1401.562,269.786z"/>
		<path style="opacity:0.9279;fill:#6EA2C9;" d="M436.637,89.541c0,9.092-7.369,16.461-16.461,16.461
			c-9.091,0-16.461-7.369-16.461-16.461c0-9.091,16.461-37.411,16.461-37.411S436.637,80.45,436.637,89.541z"/>
		<path style="opacity:0.8724;fill:#6EA2C9;" d="M1085.397,1453.593c0,3.52-2.853,6.373-6.373,6.373s-6.373-2.853-6.373-6.373
			s6.373-14.485,6.373-14.485S1085.397,1450.073,1085.397,1453.593z"/>
		<path style="opacity:0.6742;fill:#6EA2C9;" d="M954.607,659.884c0,3.013-2.442,5.455-5.455,5.455
			c-3.013,0-5.455-2.442-5.455-5.455c0-3.013,5.455-12.397,5.455-12.397S954.607,656.872,954.607,659.884z"/>
		<path style="opacity:0.7463;fill:#6EA2C9;" d="M1812.724,1686.291c0,4.23-3.429,7.659-7.659,7.659s-7.659-3.429-7.659-7.659
			s7.659-17.407,7.659-17.407S1812.724,1682.06,1812.724,1686.291z"/>
		<path style="opacity:0.7751;fill:#6EA2C9;" d="M1705.908,792.318c0,3.077-2.494,5.57-5.57,5.57c-3.077,0-5.57-2.494-5.57-5.57
			c0-3.076,5.57-12.66,5.57-12.66S1705.908,789.242,1705.908,792.318z"/>
		<path style="opacity:0.8822;fill:#6EA2C9;" d="M78.605,488.088c0,14.1-11.43,25.531-25.531,25.531
			c-14.1,0-25.531-11.43-25.531-25.531c0-14.1,25.531-58.025,25.531-58.025S78.605,473.988,78.605,488.088z"/>
		<path style="opacity:0.7486;fill:#6EA2C9;" d="M904.966,869.388c0,3.596-2.916,6.513-6.513,6.513
			c-3.597,0-6.513-2.917-6.513-6.513c0-3.597,6.513-14.802,6.513-14.802S904.966,865.791,904.966,869.388z"/>
		<path style="opacity:0.8731;fill:#6EA2C9;" d="M119.099,113.136c0,13.804-11.19,24.995-24.994,24.995S69.11,126.94,69.11,113.136
			s24.994-56.806,24.994-56.806S119.099,99.332,119.099,113.136z"/>
		<path style="opacity:0.9247;fill:#6EA2C9;" d="M470.81,1091.65c0,14.56-11.804,26.364-26.364,26.364s-26.363-11.803-26.363-26.364
			s26.363-59.918,26.363-59.918S470.81,1077.09,470.81,1091.65z"/>
		<path style="opacity:0.9727;fill:#6EA2C9;" d="M2312.862,414.456c0,13.388-10.853,24.24-24.24,24.24
			c-13.388,0-24.24-10.853-24.24-24.24c0-13.387,24.24-55.091,24.24-55.091S2312.862,401.069,2312.862,414.456z"/>
		<path style="opacity:0.6906;fill:#6EA2C9;" d="M1538.459,1677.854c0,12.108-9.815,21.922-21.923,21.922
			c-12.108,0-21.922-9.815-21.922-21.922c0-12.108,21.922-49.824,21.922-49.824S1538.459,1665.746,1538.459,1677.854z"/>
		<path style="opacity:0.8493;fill:#6EA2C9;" d="M1176.599,1667.783c0,9.529-7.724,17.254-17.254,17.254
			c-9.529,0-17.253-7.725-17.253-17.254c0-9.529,17.253-39.212,17.253-39.212S1176.599,1658.254,1176.599,1667.783z"/>
		<path style="opacity:0.8946;fill:#6EA2C9;" d="M1844.81,1203.299c0,6.24-5.058,11.299-11.299,11.299
			c-6.24,0-11.298-5.058-11.298-11.299c0-6.24,11.298-25.678,11.298-25.678S1844.81,1197.059,1844.81,1203.299z"/>
		<path style="opacity:0.7288;fill:#6EA2C9;" d="M489.129,237.599c0,9.43-7.644,17.075-17.074,17.075
			c-9.43,0-17.075-7.645-17.075-17.075c0-9.43,17.075-38.806,17.075-38.806S489.129,228.169,489.129,237.599z"/>
		<path style="opacity:0.8221;fill:#6EA2C9;" d="M1375.649,1693.672c0,4.998-4.052,9.05-9.05,9.05c-4.998,0-9.05-4.052-9.05-9.05
			c0-4.998,9.05-20.568,9.05-20.568S1375.649,1688.673,1375.649,1693.672z"/>
		<path style="opacity:0.6821;fill:#6EA2C9;" d="M2117.776,419.035c0,8.79-7.125,15.915-15.915,15.915s-15.915-7.126-15.915-15.915
			c0-8.789,15.915-36.171,15.915-36.171S2117.776,410.246,2117.776,419.035z"/>
		<path style="opacity:0.8217;fill:#6EA2C9;" d="M2364.78,1802.639c0,10.545-8.548,19.093-19.093,19.093
			c-10.544,0-19.092-8.548-19.092-19.093c0-10.544,19.092-43.392,19.092-43.392S2364.78,1792.094,2364.78,1802.639z"/>
		<path style="opacity:0.6556;fill:#6EA2C9;" d="M476.855,1494.378c0,2.853-2.313,5.166-5.166,5.166
			c-2.853,0-5.166-2.313-5.166-5.166c0-2.853,5.166-11.741,5.166-11.741S476.855,1491.526,476.855,1494.378z"/>
		<path style="opacity:0.8636;fill:#6EA2C9;" d="M2061.063,257.273c0,7.359-5.966,13.324-13.324,13.324
			c-7.358,0-13.324-5.966-13.324-13.324c0-7.358,13.324-30.282,13.324-30.282S2061.063,249.915,2061.063,257.273z"/>
		<path style="opacity:0.7199;fill:#6EA2C9;" d="M859.069,1466.772c0,2.673-2.167,4.841-4.841,4.841s-4.841-2.167-4.841-4.841
			s4.841-11.001,4.841-11.001S859.069,1464.099,859.069,1466.772z"/>
		<path style="opacity:0.8344;fill:#6EA2C9;" d="M2095.423,1188.152c0,4.001-3.244,7.244-7.245,7.244
			c-4.001,0-7.245-3.243-7.245-7.244c0-4.002,7.245-16.465,7.245-16.465S2095.423,1184.15,2095.423,1188.152z"/>
		<path style="opacity:0.6496;fill:#6EA2C9;" d="M1857.688,557.83c0,5.84-4.734,10.573-10.573,10.573
			c-5.84,0-10.573-4.734-10.573-10.573c0-5.839,10.573-24.029,10.573-24.029S1857.688,551.991,1857.688,557.83z"/>
		<path style="opacity:0.9242;fill:#6EA2C9;" d="M2138.194,807.995c0,2.875-2.33,5.206-5.205,5.206s-5.206-2.331-5.206-5.206
			c0-2.875,5.206-11.831,5.206-11.831S2138.194,805.12,2138.194,807.995z"/>
		<path style="opacity:0.6584;fill:#6EA2C9;" d="M1784.842,1437.485c0,6.719-5.447,12.166-12.166,12.166
			c-6.719,0-12.166-5.447-12.166-12.166s12.166-27.651,12.166-27.651S1784.842,1430.766,1784.842,1437.485z"/>
		<path style="opacity:0.8119;fill:#6EA2C9;" d="M664.638,614.878c0,2.839-2.303,5.141-5.142,5.141s-5.142-2.302-5.142-5.141
			c0-2.84,5.142-11.686,5.142-11.686S664.638,612.038,664.638,614.878z"/>
		<path style="opacity:0.7561;fill:#6EA2C9;" d="M1812.347,38.862c0,4.463-3.618,8.081-8.081,8.081s-8.081-3.618-8.081-8.081
			c0-4.463,8.081-18.366,8.081-18.366S1812.347,34.399,1812.347,38.862z"/>
		<path style="opacity:0.6054;fill:#6EA2C9;" d="M1461.319,977.99c0,4.838-3.921,8.759-8.759,8.759
			c-4.838,0-8.759-3.921-8.759-8.759c0-4.838,8.759-19.907,8.759-19.907S1461.319,973.152,1461.319,977.99z"/>
		<path style="opacity:0.9028;fill:#6EA2C9;" d="M2194.669,1834.381c0,2.831-2.295,5.127-5.127,5.127s-5.128-2.295-5.128-5.127
			c0-2.832,5.128-11.652,5.128-11.652S2194.669,1831.55,2194.669,1834.381z"/>
		<path style="opacity:0.8483;fill:#6EA2C9;" d="M1216.224,845.037c0,8.677-7.035,15.712-15.712,15.712
			c-8.678,0-15.712-7.035-15.712-15.712c0-8.678,15.712-35.709,15.712-35.709S1216.224,836.359,1216.224,845.037z"/>
		<path style="opacity:0.9213;fill:#6EA2C9;" d="M1614.618,1808.94c0,8.603-6.974,15.578-15.577,15.578
			c-8.603,0-15.577-6.974-15.577-15.578c0-8.603,15.577-35.402,15.577-35.402S1614.618,1800.337,1614.618,1808.94z"/>
		<path style="opacity:0.8029;fill:#6EA2C9;" d="M524.315,616.919c0,15.792-12.801,28.593-28.593,28.593
			c-15.791,0-28.592-12.801-28.592-28.593c0-15.792,28.592-64.983,28.592-64.983S524.315,601.127,524.315,616.919z"/>
		<path style="opacity:0.8525;fill:#6EA2C9;" d="M921.786,1189.858c0,3.235-2.623,5.858-5.858,5.858s-5.858-2.623-5.858-5.858
			c0-3.235,5.858-13.314,5.858-13.314S921.786,1186.623,921.786,1189.858z"/>
		<path style="opacity:0.7212;fill:#6EA2C9;" d="M1088.254,1046.717c0,10.465-8.483,18.947-18.947,18.947
			c-10.464,0-18.947-8.483-18.947-18.947c0-10.464,18.947-43.061,18.947-43.061S1088.254,1036.253,1088.254,1046.717z"/>
		<path style="opacity:0.9405;fill:#6EA2C9;" d="M1926.362,933.179c0,3.811-3.089,6.899-6.899,6.899
			c-3.81,0-6.898-3.088-6.898-6.899c0-3.81,6.898-15.679,6.898-15.679S1926.362,929.369,1926.362,933.179z"/>
		<path style="opacity:0.8363;fill:#6EA2C9;" d="M77.92,683.841c0,15.334-12.431,27.766-27.766,27.766
			c-15.335,0-27.767-12.432-27.767-27.766c0-15.335,27.767-63.106,27.767-63.106S77.92,668.506,77.92,683.841z"/>
		<path style="opacity:0.7495;fill:#6EA2C9;" d="M1129.276,1238.65c0,15.498-12.564,28.061-28.061,28.061
			s-28.061-12.564-28.061-28.061s28.061-63.776,28.061-63.776S1129.276,1223.152,1129.276,1238.65z"/>
		<path style="opacity:0.8577;fill:#6EA2C9;" d="M2335.451,703.308c0,2.654-2.152,4.807-4.807,4.807
			c-2.654,0-4.806-2.152-4.806-4.807c0-2.654,4.806-10.923,4.806-10.923S2335.451,700.654,2335.451,703.308z"/>
		<path style="opacity:0.8393;fill:#6EA2C9;" d="M1936.348,144.243c0,6.798-5.511,12.309-12.309,12.309s-12.309-5.511-12.309-12.309
			c0-6.798,12.309-27.976,12.309-27.976S1936.348,137.444,1936.348,144.243z"/>
		<path style="opacity:0.9462;fill:#6EA2C9;" d="M2277.42,60.871c0,3.029-2.455,5.485-5.485,5.485c-3.029,0-5.485-2.455-5.485-5.485
			c0-3.03,5.485-12.467,5.485-12.467S2277.42,57.841,2277.42,60.871z"/>
		<path style="opacity:0.9702;fill:#6EA2C9;" d="M222.114,548.867c0,15.952-12.932,28.884-28.883,28.884
			c-15.952,0-28.884-12.932-28.884-28.884c0-15.952,28.884-65.644,28.884-65.644S222.114,532.916,222.114,548.867z"/>
		<path style="opacity:0.6532;fill:#6EA2C9;" d="M45.912,1832.309c0,2.778-2.253,5.031-5.031,5.031
			c-2.778,0-5.031-2.252-5.031-5.031s5.031-11.434,5.031-11.434S45.912,1829.531,45.912,1832.309z"/>
		<path style="opacity:0.6938;fill:#6EA2C9;" d="M1081.737,1826.734c0,7.825-6.343,14.168-14.168,14.168
			c-7.825,0-14.168-6.343-14.168-14.168s14.168-32.2,14.168-32.2S1081.737,1818.91,1081.737,1826.734z"/>
		<path style="opacity:0.6021;fill:#6EA2C9;" d="M1411.96,1326.759c0,14.887-12.068,26.956-26.955,26.956
			s-26.956-12.069-26.956-26.956c0-14.886,26.956-61.262,26.956-61.262S1411.96,1311.873,1411.96,1326.759z"/>
		<path style="opacity:0.7167;fill:#6EA2C9;" d="M1800.339,169.325c0,13.676-11.086,24.762-24.762,24.762
			s-24.761-11.087-24.761-24.762c0-13.675,24.761-56.276,24.761-56.276S1800.339,155.649,1800.339,169.325z"/>
		<path style="opacity:0.9456;fill:#6EA2C9;" d="M207.52,1829.934c0,12.459-10.099,22.559-22.559,22.559
			c-12.459,0-22.559-10.1-22.559-22.559c0-12.459,22.559-51.27,22.559-51.27S207.52,1817.475,207.52,1829.934z"/>
		<path style="opacity:0.8312;fill:#6EA2C9;" d="M344.881,1412.536c0,4.4-3.567,7.966-7.966,7.966c-4.4,0-7.966-3.567-7.966-7.966
			c0-4.4,7.966-18.106,7.966-18.106S344.881,1408.136,344.881,1412.536z"/>
		<path style="opacity:0.6387;fill:#6EA2C9;" d="M775.939,446.561c0,7.896-6.401,14.297-14.297,14.297
			c-7.896,0-14.297-6.401-14.297-14.297c0-7.896,14.297-32.494,14.297-32.494S775.939,438.665,775.939,446.561z"/>
		<path style="opacity:0.7403;fill:#6EA2C9;" d="M783.259,1295.993c0,4.496-3.645,8.14-8.141,8.14c-4.496,0-8.14-3.644-8.14-8.14
			s8.14-18.501,8.14-18.501S783.259,1291.497,783.259,1295.993z"/>
		<path style="opacity:0.9374;fill:#6EA2C9;" d="M1494.579,1171.123c0,10.809-8.762,19.572-19.571,19.572
			c-10.809,0-19.572-8.763-19.572-19.572s19.572-44.481,19.572-44.481S1494.579,1160.313,1494.579,1171.123z"/>
		<path style="opacity:0.9016;fill:#6EA2C9;" d="M645.036,1151.08c0,11.007-8.923,19.931-19.931,19.931
			c-11.008,0-19.932-8.924-19.932-19.931c0-11.008,19.932-45.299,19.932-45.299S645.036,1140.072,645.036,1151.08z"/>
		<path style="opacity:0.9022;fill:#6EA2C9;" d="M1131.004,671.879c0,6.284-5.094,11.378-11.378,11.378
			c-6.284,0-11.377-5.094-11.377-11.378c0-6.283,11.377-25.858,11.377-25.858S1131.004,665.596,1131.004,671.879z"/>
		<path style="opacity:0.8098;fill:#6EA2C9;" d="M618.325,776.958c0,4.26-3.453,7.714-7.713,7.714c-4.26,0-7.713-3.453-7.713-7.714
			c0-4.26,7.713-17.53,7.713-17.53S618.325,772.698,618.325,776.958z"/>
		<path style="opacity:0.9839;fill:#6EA2C9;" d="M257.533,1585.72c0,8.551-6.932,15.483-15.483,15.483
			c-8.551,0-15.483-6.932-15.483-15.483s15.483-35.189,15.483-35.189S257.533,1577.169,257.533,1585.72z"/>
		<path style="opacity:0.9898;fill:#6EA2C9;" d="M29.785,226.648c0,5.342-4.33,9.672-9.672,9.672s-9.672-4.33-9.672-9.672
			c0-5.342,9.672-21.982,9.672-21.982S29.785,221.307,29.785,226.648z"/>
		<path style="opacity:0.8191;fill:#6EA2C9;" d="M1498.291,1516.763c0,15.923-12.908,28.831-28.831,28.831
			c-15.923,0-28.831-12.908-28.831-28.831c0-15.923,28.831-65.526,28.831-65.526S1498.291,1500.84,1498.291,1516.763z"/>
		<path style="opacity:0.7198;fill:#6EA2C9;" d="M341.124,613.529c0,5.195-4.211,9.406-9.406,9.406
			c-5.195,0-9.406-4.211-9.406-9.406s9.406-21.377,9.406-21.377S341.124,608.334,341.124,613.529z"/>
		<path style="opacity:0.7124;fill:#6EA2C9;" d="M824.699,1696.481c0,15.964-12.942,28.906-28.906,28.906
			c-15.964,0-28.906-12.942-28.906-28.906s28.906-65.695,28.906-65.695S824.699,1680.517,824.699,1696.481z"/>
		<path style="opacity:0.8204;fill:#6EA2C9;" d="M2041.507,577.851c0,10.216-8.282,18.498-18.498,18.498
			s-18.498-8.282-18.498-18.498c0-10.216,18.498-42.041,18.498-42.041S2041.507,567.635,2041.507,577.851z"/>
		<path style="opacity:0.677;fill:#6EA2C9;" d="M1409.246,627.585c0,15.152-12.283,27.436-27.436,27.436
			s-27.436-12.284-27.436-27.436c0-15.153,27.436-62.355,27.436-62.355S1409.246,612.432,1409.246,627.585z"/>
		<path style="opacity:0.9388;fill:#6EA2C9;" d="M1693.145,1135.835c0,13.748-11.145,24.893-24.893,24.893
			c-13.748,0-24.893-11.145-24.893-24.893c0-13.748,24.893-56.574,24.893-56.574S1693.145,1122.087,1693.145,1135.835z"/>
		<path style="opacity:0.7819;fill:#6EA2C9;" d="M103.614,831.709c0,11.669-9.46,21.13-21.13,21.13
			c-11.67,0-21.129-9.461-21.129-21.13c0-11.669,21.129-48.022,21.129-48.022S103.614,820.039,103.614,831.709z"/>
		<path style="opacity:0.6015;fill:#6EA2C9;" d="M787.978,746.389c0,4.424-3.587,8.01-8.011,8.01c-4.424,0-8.01-3.586-8.01-8.01
			c0-4.425,8.01-18.206,8.01-18.206S787.978,741.964,787.978,746.389z"/>
		<path style="opacity:0.827;fill:#6EA2C9;" d="M263.456,69.031c0,3.185-2.582,5.768-5.767,5.768c-3.185,0-5.768-2.583-5.768-5.768
			c0-3.185,5.768-13.108,5.768-13.108S263.456,65.846,263.456,69.031z"/>
		<path style="opacity:0.8955;fill:#6EA2C9;" d="M352.384,863.275c0,3.34-2.707,6.048-6.047,6.048c-3.34,0-6.048-2.708-6.048-6.048
			c0-3.34,6.048-13.745,6.048-13.745S352.384,859.935,352.384,863.275z"/>
		<path style="opacity:0.7706;fill:#6EA2C9;" d="M2180.813,1492.231c0,4.392-3.56,7.952-7.952,7.952s-7.951-3.56-7.951-7.952
			s7.951-18.072,7.951-18.072S2180.813,1487.84,2180.813,1492.231z"/>
		<path style="opacity:0.8496;fill:#6EA2C9;" d="M1636.631,259.867c0,10.779-8.738,19.517-19.516,19.517
			c-10.779,0-19.516-8.738-19.516-19.517c0-10.779,19.516-44.356,19.516-44.356S1636.631,249.088,1636.631,259.867z"/>
		<path style="opacity:0.8856;fill:#6EA2C9;" d="M714.134,100.835c0,4.158-3.371,7.529-7.529,7.529c-4.158,0-7.529-3.37-7.529-7.529
			c0-4.158,7.529-17.11,7.529-17.11S714.134,96.677,714.134,100.835z"/>
		<path style="opacity:0.8636;fill:#6EA2C9;" d="M1270.823,1210.218c0,7.073-5.734,12.806-12.807,12.806
			c-7.072,0-12.806-5.733-12.806-12.806s12.806-29.105,12.806-29.105S1270.823,1203.145,1270.823,1210.218z"/>
	</g>
</g>
</svg>
